<mxfile host="app.diagrams.net" modified="2024-03-19T16:15:15.409Z" agent="Mozilla/5.0 (X11; Linux x86_64) AppleWebKit/537.36 (KHTML, like Gecko) Chrome/122.0.0.0 Safari/537.36" etag="U1KPlhklR-xnro7emI3v" version="24.0.7" type="github">
  <diagram name="Page-1" id="2XKYMDq-A-VBpdEHPca9">
    <mxGraphModel dx="1434" dy="790" grid="1" gridSize="10" guides="1" tooltips="1" connect="1" arrows="1" fold="1" page="1" pageScale="1" pageWidth="850" pageHeight="1100" math="0" shadow="0">
      <root>
        <mxCell id="0" />
        <mxCell id="1" parent="0" />
        <mxCell id="a564kNEdvN1alCRzrxRP-16" value="department" style="swimlane;childLayout=stackLayout;horizontal=1;startSize=50;horizontalStack=0;rounded=1;fontSize=14;fontStyle=0;strokeWidth=2;resizeParent=0;resizeLast=1;shadow=0;dashed=0;align=center;arcSize=4;whiteSpace=wrap;html=1;" vertex="1" parent="1">
          <mxGeometry x="180" y="420" width="160" height="120" as="geometry" />
        </mxCell>
        <mxCell id="a564kNEdvN1alCRzrxRP-17" value="+id&lt;br&gt;+name&lt;br&gt;+shortName" style="align=left;strokeColor=none;fillColor=none;spacingLeft=4;fontSize=12;verticalAlign=top;resizable=0;rotatable=0;part=1;html=1;" vertex="1" parent="a564kNEdvN1alCRzrxRP-16">
          <mxGeometry y="50" width="160" height="70" as="geometry" />
        </mxCell>
        <mxCell id="a564kNEdvN1alCRzrxRP-18" value="subject" style="swimlane;childLayout=stackLayout;horizontal=1;startSize=50;horizontalStack=0;rounded=1;fontSize=14;fontStyle=0;strokeWidth=2;resizeParent=0;resizeLast=1;shadow=0;dashed=0;align=center;arcSize=4;whiteSpace=wrap;html=1;" vertex="1" parent="1">
          <mxGeometry x="445" y="420" width="160" height="120" as="geometry" />
        </mxCell>
        <mxCell id="a564kNEdvN1alCRzrxRP-19" value="+id&lt;br&gt;+name&lt;br&gt;+esbp&lt;div&gt;+department_id&lt;/div&gt;" style="align=left;strokeColor=none;fillColor=none;spacingLeft=4;fontSize=12;verticalAlign=top;resizable=0;rotatable=0;part=1;html=1;" vertex="1" parent="a564kNEdvN1alCRzrxRP-18">
          <mxGeometry y="50" width="160" height="70" as="geometry" />
        </mxCell>
        <mxCell id="a564kNEdvN1alCRzrxRP-20" value="member" style="swimlane;childLayout=stackLayout;horizontal=1;startSize=50;horizontalStack=0;rounded=1;fontSize=14;fontStyle=0;strokeWidth=2;resizeParent=0;resizeLast=1;shadow=0;dashed=0;align=center;arcSize=4;whiteSpace=wrap;html=1;" vertex="1" parent="1">
          <mxGeometry x="340" y="610" width="160" height="150" as="geometry" />
        </mxCell>
        <mxCell id="a564kNEdvN1alCRzrxRP-21" value="+id&lt;br&gt;+firstname&lt;br&gt;+lastname&lt;div&gt;+academic_title_id&lt;/div&gt;&lt;div&gt;+education_title_id&lt;/div&gt;&lt;div&gt;+scientific_field_id&lt;/div&gt;" style="align=left;strokeColor=none;fillColor=none;spacingLeft=4;fontSize=12;verticalAlign=top;resizable=0;rotatable=0;part=1;html=1;" vertex="1" parent="a564kNEdvN1alCRzrxRP-20">
          <mxGeometry y="50" width="160" height="100" as="geometry" />
        </mxCell>
        <mxCell id="a564kNEdvN1alCRzrxRP-24" value="&lt;span style=&quot;font-size: 12px; text-align: left; text-wrap: nowrap;&quot;&gt;academic_title&lt;/span&gt;" style="swimlane;childLayout=stackLayout;horizontal=1;startSize=50;horizontalStack=0;rounded=1;fontSize=14;fontStyle=0;strokeWidth=2;resizeParent=0;resizeLast=1;shadow=0;dashed=0;align=center;arcSize=4;whiteSpace=wrap;html=1;" vertex="1" parent="1">
          <mxGeometry x="140" y="830" width="160" height="90" as="geometry" />
        </mxCell>
        <mxCell id="a564kNEdvN1alCRzrxRP-25" value="+id&lt;br&gt;+name" style="align=left;strokeColor=none;fillColor=none;spacingLeft=4;fontSize=12;verticalAlign=top;resizable=0;rotatable=0;part=1;html=1;" vertex="1" parent="a564kNEdvN1alCRzrxRP-24">
          <mxGeometry y="50" width="160" height="40" as="geometry" />
        </mxCell>
        <mxCell id="a564kNEdvN1alCRzrxRP-28" value="&lt;span style=&quot;font-size: 12px; text-align: left; text-wrap: nowrap;&quot;&gt;education_title&lt;/span&gt;" style="swimlane;childLayout=stackLayout;horizontal=1;startSize=50;horizontalStack=0;rounded=1;fontSize=14;fontStyle=0;strokeWidth=2;resizeParent=0;resizeLast=1;shadow=0;dashed=0;align=center;arcSize=4;whiteSpace=wrap;html=1;" vertex="1" parent="1">
          <mxGeometry x="340" y="830" width="160" height="90" as="geometry" />
        </mxCell>
        <mxCell id="a564kNEdvN1alCRzrxRP-29" value="+id&lt;br&gt;+name" style="align=left;strokeColor=none;fillColor=none;spacingLeft=4;fontSize=12;verticalAlign=top;resizable=0;rotatable=0;part=1;html=1;" vertex="1" parent="a564kNEdvN1alCRzrxRP-28">
          <mxGeometry y="50" width="160" height="40" as="geometry" />
        </mxCell>
        <mxCell id="a564kNEdvN1alCRzrxRP-30" value="&lt;span style=&quot;font-size: 12px; text-align: left; text-wrap: nowrap;&quot;&gt;scientific_field&lt;/span&gt;" style="swimlane;childLayout=stackLayout;horizontal=1;startSize=50;horizontalStack=0;rounded=1;fontSize=14;fontStyle=0;strokeWidth=2;resizeParent=0;resizeLast=1;shadow=0;dashed=0;align=center;arcSize=4;whiteSpace=wrap;html=1;" vertex="1" parent="1">
          <mxGeometry x="540" y="830" width="160" height="90" as="geometry" />
        </mxCell>
        <mxCell id="a564kNEdvN1alCRzrxRP-31" value="+id&lt;br&gt;+name" style="align=left;strokeColor=none;fillColor=none;spacingLeft=4;fontSize=12;verticalAlign=top;resizable=0;rotatable=0;part=1;html=1;" vertex="1" parent="a564kNEdvN1alCRzrxRP-30">
          <mxGeometry y="50" width="160" height="40" as="geometry" />
        </mxCell>
        <mxCell id="a564kNEdvN1alCRzrxRP-32" value="academic_title_history" style="swimlane;childLayout=stackLayout;horizontal=1;startSize=50;horizontalStack=0;rounded=1;fontSize=14;fontStyle=0;strokeWidth=2;resizeParent=0;resizeLast=1;shadow=0;dashed=0;align=center;arcSize=4;whiteSpace=wrap;html=1;" vertex="1" parent="1">
          <mxGeometry x="620" y="610" width="160" height="150" as="geometry" />
        </mxCell>
        <mxCell id="a564kNEdvN1alCRzrxRP-33" value="+id&lt;br&gt;+start_date&lt;br&gt;+end_date&lt;div&gt;+academic_title&lt;/div&gt;&lt;div&gt;+scientific_field&lt;/div&gt;&lt;div&gt;+member_id&lt;/div&gt;" style="align=left;strokeColor=none;fillColor=none;spacingLeft=4;fontSize=12;verticalAlign=top;resizable=0;rotatable=0;part=1;html=1;" vertex="1" parent="a564kNEdvN1alCRzrxRP-32">
          <mxGeometry y="50" width="160" height="100" as="geometry" />
        </mxCell>
        <mxCell id="a564kNEdvN1alCRzrxRP-48" value="" style="endArrow=none;html=1;rounded=0;entryX=0.5;entryY=0;entryDx=0;entryDy=0;exitX=0;exitY=1;exitDx=0;exitDy=0;" edge="1" parent="1" source="a564kNEdvN1alCRzrxRP-21" target="a564kNEdvN1alCRzrxRP-24">
          <mxGeometry relative="1" as="geometry">
            <mxPoint x="130" y="760" as="sourcePoint" />
            <mxPoint x="290" y="760" as="targetPoint" />
          </mxGeometry>
        </mxCell>
        <mxCell id="a564kNEdvN1alCRzrxRP-49" value="1" style="resizable=0;html=1;whiteSpace=wrap;align=right;verticalAlign=bottom;" connectable="0" vertex="1" parent="a564kNEdvN1alCRzrxRP-48">
          <mxGeometry x="1" relative="1" as="geometry" />
        </mxCell>
        <mxCell id="a564kNEdvN1alCRzrxRP-50" value="" style="endArrow=none;html=1;rounded=0;entryX=0.5;entryY=0;entryDx=0;entryDy=0;exitX=0.5;exitY=1;exitDx=0;exitDy=0;" edge="1" parent="1" source="a564kNEdvN1alCRzrxRP-21" target="a564kNEdvN1alCRzrxRP-28">
          <mxGeometry relative="1" as="geometry">
            <mxPoint x="330" y="990" as="sourcePoint" />
            <mxPoint x="490" y="990" as="targetPoint" />
          </mxGeometry>
        </mxCell>
        <mxCell id="a564kNEdvN1alCRzrxRP-51" value="1" style="resizable=0;html=1;whiteSpace=wrap;align=right;verticalAlign=bottom;" connectable="0" vertex="1" parent="a564kNEdvN1alCRzrxRP-50">
          <mxGeometry x="1" relative="1" as="geometry" />
        </mxCell>
        <mxCell id="a564kNEdvN1alCRzrxRP-52" value="" style="endArrow=none;html=1;rounded=0;entryX=0.5;entryY=0;entryDx=0;entryDy=0;exitX=1;exitY=1;exitDx=0;exitDy=0;" edge="1" parent="1" source="a564kNEdvN1alCRzrxRP-21" target="a564kNEdvN1alCRzrxRP-30">
          <mxGeometry relative="1" as="geometry">
            <mxPoint x="560" y="790" as="sourcePoint" />
            <mxPoint x="720" y="790" as="targetPoint" />
            <Array as="points">
              <mxPoint x="550" y="790" />
            </Array>
          </mxGeometry>
        </mxCell>
        <mxCell id="a564kNEdvN1alCRzrxRP-53" value="1" style="resizable=0;html=1;whiteSpace=wrap;align=right;verticalAlign=bottom;" connectable="0" vertex="1" parent="a564kNEdvN1alCRzrxRP-52">
          <mxGeometry x="1" relative="1" as="geometry">
            <mxPoint as="offset" />
          </mxGeometry>
        </mxCell>
        <mxCell id="a564kNEdvN1alCRzrxRP-54" value="&lt;span style=&quot;text-align: right;&quot;&gt;M&lt;/span&gt;" style="text;html=1;align=center;verticalAlign=middle;resizable=0;points=[];autosize=1;strokeColor=none;fillColor=none;" vertex="1" parent="1">
          <mxGeometry x="500" y="740" width="30" height="30" as="geometry" />
        </mxCell>
        <mxCell id="a564kNEdvN1alCRzrxRP-55" value="&lt;span style=&quot;text-align: right;&quot;&gt;M&lt;/span&gt;" style="text;html=1;align=center;verticalAlign=middle;resizable=0;points=[];autosize=1;strokeColor=none;fillColor=none;" vertex="1" parent="1">
          <mxGeometry x="390" y="760" width="30" height="30" as="geometry" />
        </mxCell>
        <mxCell id="a564kNEdvN1alCRzrxRP-56" value="&lt;span style=&quot;text-align: right;&quot;&gt;M&lt;/span&gt;" style="text;html=1;align=center;verticalAlign=middle;resizable=0;points=[];autosize=1;strokeColor=none;fillColor=none;" vertex="1" parent="1">
          <mxGeometry x="310" y="740" width="30" height="30" as="geometry" />
        </mxCell>
        <mxCell id="a564kNEdvN1alCRzrxRP-58" value="" style="endArrow=none;html=1;rounded=0;exitX=0.413;exitY=1.029;exitDx=0;exitDy=0;exitPerimeter=0;entryX=-0.012;entryY=0.19;entryDx=0;entryDy=0;entryPerimeter=0;" edge="1" parent="1" source="a564kNEdvN1alCRzrxRP-17" target="a564kNEdvN1alCRzrxRP-21">
          <mxGeometry relative="1" as="geometry">
            <mxPoint x="140" y="660" as="sourcePoint" />
            <mxPoint x="300" y="660" as="targetPoint" />
            <Array as="points">
              <mxPoint x="246" y="679" />
            </Array>
          </mxGeometry>
        </mxCell>
        <mxCell id="a564kNEdvN1alCRzrxRP-59" value="1" style="resizable=0;html=1;whiteSpace=wrap;align=left;verticalAlign=bottom;" connectable="0" vertex="1" parent="a564kNEdvN1alCRzrxRP-58">
          <mxGeometry x="-1" relative="1" as="geometry">
            <mxPoint x="4" y="28" as="offset" />
          </mxGeometry>
        </mxCell>
        <mxCell id="a564kNEdvN1alCRzrxRP-60" value="M" style="resizable=0;html=1;whiteSpace=wrap;align=right;verticalAlign=bottom;" connectable="0" vertex="1" parent="a564kNEdvN1alCRzrxRP-58">
          <mxGeometry x="1" relative="1" as="geometry">
            <mxPoint x="-8" as="offset" />
          </mxGeometry>
        </mxCell>
        <mxCell id="a564kNEdvN1alCRzrxRP-67" value="Clan" style="edgeLabel;html=1;align=center;verticalAlign=middle;resizable=0;points=[];" vertex="1" connectable="0" parent="a564kNEdvN1alCRzrxRP-58">
          <mxGeometry x="-0.2581" y="-2" relative="1" as="geometry">
            <mxPoint as="offset" />
          </mxGeometry>
        </mxCell>
        <mxCell id="a564kNEdvN1alCRzrxRP-61" value="" style="endArrow=none;html=1;rounded=0;exitX=1;exitY=0.25;exitDx=0;exitDy=0;entryX=0;entryY=0.25;entryDx=0;entryDy=0;" edge="1" parent="1" source="a564kNEdvN1alCRzrxRP-17" target="a564kNEdvN1alCRzrxRP-19">
          <mxGeometry relative="1" as="geometry">
            <mxPoint x="350" y="550" as="sourcePoint" />
            <mxPoint x="510" y="550" as="targetPoint" />
          </mxGeometry>
        </mxCell>
        <mxCell id="a564kNEdvN1alCRzrxRP-62" value="1" style="resizable=0;html=1;whiteSpace=wrap;align=left;verticalAlign=bottom;" connectable="0" vertex="1" parent="a564kNEdvN1alCRzrxRP-61">
          <mxGeometry x="-1" relative="1" as="geometry">
            <mxPoint x="10" as="offset" />
          </mxGeometry>
        </mxCell>
        <mxCell id="a564kNEdvN1alCRzrxRP-64" value="" style="endArrow=none;html=1;rounded=0;exitX=1;exitY=0.25;exitDx=0;exitDy=0;entryX=0;entryY=0.5;entryDx=0;entryDy=0;" edge="1" parent="1" source="a564kNEdvN1alCRzrxRP-21" target="a564kNEdvN1alCRzrxRP-32">
          <mxGeometry relative="1" as="geometry">
            <mxPoint x="630" y="790" as="sourcePoint" />
            <mxPoint x="790" y="790" as="targetPoint" />
          </mxGeometry>
        </mxCell>
        <mxCell id="a564kNEdvN1alCRzrxRP-65" value="1" style="resizable=0;html=1;whiteSpace=wrap;align=left;verticalAlign=bottom;" connectable="0" vertex="1" parent="a564kNEdvN1alCRzrxRP-64">
          <mxGeometry x="-1" relative="1" as="geometry">
            <mxPoint x="10" y="-5" as="offset" />
          </mxGeometry>
        </mxCell>
        <mxCell id="a564kNEdvN1alCRzrxRP-66" value="1" style="resizable=0;html=1;whiteSpace=wrap;align=right;verticalAlign=bottom;" connectable="0" vertex="1" parent="a564kNEdvN1alCRzrxRP-64">
          <mxGeometry x="1" relative="1" as="geometry">
            <mxPoint x="-10" as="offset" />
          </mxGeometry>
        </mxCell>
        <mxCell id="a564kNEdvN1alCRzrxRP-68" value="" style="endArrow=none;html=1;rounded=0;exitX=0.75;exitY=1;exitDx=0;exitDy=0;entryX=0;entryY=0;entryDx=0;entryDy=0;" edge="1" parent="1" source="a564kNEdvN1alCRzrxRP-17" target="a564kNEdvN1alCRzrxRP-20">
          <mxGeometry relative="1" as="geometry">
            <mxPoint x="390" y="560" as="sourcePoint" />
            <mxPoint x="550" y="560" as="targetPoint" />
          </mxGeometry>
        </mxCell>
        <mxCell id="a564kNEdvN1alCRzrxRP-70" value="Rukovodioc" style="edgeLabel;html=1;align=center;verticalAlign=middle;resizable=0;points=[];" vertex="1" connectable="0" parent="a564kNEdvN1alCRzrxRP-68">
          <mxGeometry x="0.0646" y="-1" relative="1" as="geometry">
            <mxPoint as="offset" />
          </mxGeometry>
        </mxCell>
        <mxCell id="a564kNEdvN1alCRzrxRP-69" value="" style="endArrow=none;html=1;rounded=0;exitX=1;exitY=0.75;exitDx=0;exitDy=0;entryX=0.338;entryY=-0.007;entryDx=0;entryDy=0;entryPerimeter=0;" edge="1" parent="1" source="a564kNEdvN1alCRzrxRP-17" target="a564kNEdvN1alCRzrxRP-20">
          <mxGeometry relative="1" as="geometry">
            <mxPoint x="370" y="550" as="sourcePoint" />
            <mxPoint x="530" y="550" as="targetPoint" />
            <Array as="points">
              <mxPoint x="394" y="523" />
            </Array>
          </mxGeometry>
        </mxCell>
        <mxCell id="a564kNEdvN1alCRzrxRP-71" value="Sekretar" style="edgeLabel;html=1;align=center;verticalAlign=middle;resizable=0;points=[];" vertex="1" connectable="0" parent="a564kNEdvN1alCRzrxRP-69">
          <mxGeometry x="0.3577" y="2" relative="1" as="geometry">
            <mxPoint as="offset" />
          </mxGeometry>
        </mxCell>
        <mxCell id="a564kNEdvN1alCRzrxRP-72" value="department_role_history" style="swimlane;childLayout=stackLayout;horizontal=1;startSize=50;horizontalStack=0;rounded=1;fontSize=14;fontStyle=0;strokeWidth=2;resizeParent=0;resizeLast=1;shadow=0;dashed=0;align=center;arcSize=4;whiteSpace=wrap;html=1;" vertex="1" parent="1">
          <mxGeometry x="180" y="170" width="200" height="160" as="geometry">
            <mxRectangle x="640" y="500" width="190" height="50" as="alternateBounds" />
          </mxGeometry>
        </mxCell>
        <mxCell id="a564kNEdvN1alCRzrxRP-73" value="&lt;div&gt;+id&lt;/div&gt;+start_date&lt;br&gt;+end_date&lt;br&gt;+member_id&lt;div&gt;+department_id&lt;br&gt;&lt;div&gt;+role&lt;/div&gt;&lt;/div&gt;" style="align=left;strokeColor=none;fillColor=none;spacingLeft=4;fontSize=12;verticalAlign=top;resizable=0;rotatable=0;part=1;html=1;" vertex="1" parent="a564kNEdvN1alCRzrxRP-72">
          <mxGeometry y="50" width="200" height="110" as="geometry" />
        </mxCell>
        <mxCell id="a564kNEdvN1alCRzrxRP-74" value="1" style="resizable=0;html=1;whiteSpace=wrap;align=left;verticalAlign=bottom;" connectable="0" vertex="1" parent="1">
          <mxGeometry x="430" y="490" as="geometry" />
        </mxCell>
        <mxCell id="a564kNEdvN1alCRzrxRP-75" value="1" style="resizable=0;html=1;whiteSpace=wrap;align=left;verticalAlign=bottom;" connectable="0" vertex="1" parent="1">
          <mxGeometry x="360" y="500" as="geometry">
            <mxPoint x="-16" y="19" as="offset" />
          </mxGeometry>
        </mxCell>
        <mxCell id="a564kNEdvN1alCRzrxRP-76" value="1" style="resizable=0;html=1;whiteSpace=wrap;align=left;verticalAlign=bottom;" connectable="0" vertex="1" parent="1">
          <mxGeometry x="400" y="600" as="geometry" />
        </mxCell>
        <mxCell id="a564kNEdvN1alCRzrxRP-77" value="1" style="resizable=0;html=1;whiteSpace=wrap;align=left;verticalAlign=bottom;" connectable="0" vertex="1" parent="1">
          <mxGeometry x="390" y="527.5" as="geometry">
            <mxPoint x="-46" y="81" as="offset" />
          </mxGeometry>
        </mxCell>
        <mxCell id="a564kNEdvN1alCRzrxRP-78" value="1" style="resizable=0;html=1;whiteSpace=wrap;align=left;verticalAlign=bottom;" connectable="0" vertex="1" parent="1">
          <mxGeometry x="400" y="537.5" as="geometry">
            <mxPoint x="-83" y="20" as="offset" />
          </mxGeometry>
        </mxCell>
        <mxCell id="a564kNEdvN1alCRzrxRP-82" value="" style="endArrow=none;html=1;rounded=0;entryX=0.5;entryY=0;entryDx=0;entryDy=0;" edge="1" parent="1" target="a564kNEdvN1alCRzrxRP-16">
          <mxGeometry relative="1" as="geometry">
            <mxPoint x="260" y="330" as="sourcePoint" />
            <mxPoint x="400" y="370" as="targetPoint" />
          </mxGeometry>
        </mxCell>
        <mxCell id="a564kNEdvN1alCRzrxRP-83" value="1" style="resizable=0;html=1;whiteSpace=wrap;align=left;verticalAlign=bottom;" connectable="0" vertex="1" parent="a564kNEdvN1alCRzrxRP-82">
          <mxGeometry x="-1" relative="1" as="geometry">
            <mxPoint y="20" as="offset" />
          </mxGeometry>
        </mxCell>
        <mxCell id="a564kNEdvN1alCRzrxRP-84" value="1" style="resizable=0;html=1;whiteSpace=wrap;align=right;verticalAlign=bottom;" connectable="0" vertex="1" parent="a564kNEdvN1alCRzrxRP-82">
          <mxGeometry x="1" relative="1" as="geometry">
            <mxPoint y="-10" as="offset" />
          </mxGeometry>
        </mxCell>
      </root>
    </mxGraphModel>
  </diagram>
</mxfile>
